<svg width="26" height="26" viewBox="0 0 26 26" fill="none" xmlns="http://www.w3.org/2000/svg">
<g clip-path="url(#clip0_219_26282)">
<path d="M21.9379 1.62551C21.2915 1.62551 20.6715 1.88232 20.2144 2.33944C19.7572 2.79656 19.5004 3.41655 19.5004 4.06301C19.5004 4.70948 19.7572 5.32946 20.2144 5.78658C20.6715 6.2437 21.2915 6.50051 21.9379 6.50051C22.5844 6.50051 23.2044 6.2437 23.6615 5.78658C24.1186 5.32946 24.3754 4.70948 24.3754 4.06301C24.3754 3.41655 24.1186 2.79656 23.6615 2.33944C23.2044 1.88232 22.5844 1.62551 21.9379 1.62551ZM17.8754 4.06301C17.8753 3.10984 18.2104 2.18697 18.8219 1.45588C19.4335 0.724783 20.2827 0.232013 21.2209 0.0637831C22.1591 -0.104447 23.1266 0.0625745 23.9541 0.535627C24.7816 1.00868 25.4164 1.75764 25.7475 2.65147C26.0786 3.5453 26.0848 4.52708 25.7651 5.42504C25.4454 6.323 24.8202 7.07997 23.9988 7.56349C23.1773 8.04702 22.212 8.22632 21.2718 8.07002C20.3315 7.91372 19.4761 7.43178 18.8553 6.70851L7.93856 11.7785C8.18952 12.5739 8.18952 13.4272 7.93856 14.2225L18.8553 19.2925C19.5115 18.5293 20.4278 18.0369 21.4264 17.9107C22.425 17.7845 23.4349 18.0335 24.2603 18.6095C25.0858 19.1855 25.6681 20.0474 25.8943 21.0282C26.1205 22.009 25.9745 23.0389 25.4846 23.9182C24.9948 24.7975 24.196 25.4637 23.2429 25.7876C22.2899 26.1115 21.2506 26.07 20.3264 25.6713C19.4022 25.2726 18.6589 24.5449 18.2406 23.6294C17.8223 22.7139 17.7588 21.6757 18.0623 20.716L7.14556 15.646C6.60514 16.2758 5.8848 16.725 5.08145 16.9332C4.27809 17.1413 3.43026 17.0984 2.65201 16.8103C1.87375 16.5222 1.2024 16.0026 0.72828 15.3215C0.254157 14.6404 0 13.8304 0 13.0005C0 12.1706 0.254157 11.3607 0.72828 10.6795C1.2024 9.99844 1.87375 9.47887 2.65201 9.19073C3.43026 8.9026 4.27809 8.85972 5.08145 9.06787C5.8848 9.27602 6.60514 9.72521 7.14556 10.355L18.0623 5.28501C17.938 4.8896 17.875 4.47749 17.8754 4.06301ZM4.06293 10.563C3.41647 10.563 2.79648 10.8198 2.33936 11.2769C1.88224 11.7341 1.62543 12.354 1.62543 13.0005C1.62543 13.647 1.88224 14.267 2.33936 14.7241C2.79648 15.1812 3.41647 15.438 4.06293 15.438C4.7094 15.438 5.32938 15.1812 5.7865 14.7241C6.24362 14.267 6.50043 13.647 6.50043 13.0005C6.50043 12.354 6.24362 11.7341 5.7865 11.2769C5.32938 10.8198 4.7094 10.563 4.06293 10.563ZM21.9379 19.5005C21.2915 19.5005 20.6715 19.7573 20.2144 20.2144C19.7572 20.6716 19.5004 21.2915 19.5004 21.938C19.5004 22.5845 19.7572 23.2045 20.2144 23.6616C20.6715 24.1187 21.2915 24.3755 21.9379 24.3755C22.5844 24.3755 23.2044 24.1187 23.6615 23.6616C24.1186 23.2045 24.3754 22.5845 24.3754 21.938C24.3754 21.2915 24.1186 20.6716 23.6615 20.2144C23.2044 19.7573 22.5844 19.5005 21.9379 19.5005Z" fill="#FC7004"/>
</g>
<defs>
<clipPath id="clip0_219_26282">
<rect width="26" height="26" fill="white"/>
</clipPath>
</defs>
</svg>
