<svg width="24" height="24" viewBox="0 0 24 24" fill="none" xmlns="http://www.w3.org/2000/svg">
<path d="M6 4.125H18V20.625H6V4.125Z" fill="#E6E7E8"/>
<path d="M3.75 4.125C1.26488 4.125 0 5.97188 0 8.25V16.5C0 18.7781 1.26488 20.625 3.75 20.625H6V4.125H3.75ZM20.25 4.125H18V20.625H20.25C22.7351 20.625 24 18.7781 24 16.5V8.25C24 5.97188 22.7351 4.125 20.25 4.125Z" fill="#EC1C24"/>
<path fill-rule="evenodd" clip-rule="evenodd" d="M16.5982 12.2404C16.4268 12.1628 16.398 12.108 16.449 11.9187C16.5761 11.445 16.707 10.9733 16.8356 10.5004C16.8465 10.4618 16.8562 10.422 16.8708 10.3654C16.7118 10.3973 16.5633 10.4258 16.4148 10.458C16.1145 10.5218 15.816 10.5867 15.5163 10.65C15.3206 10.6909 15.231 10.6362 15.1755 10.4427C15.1233 10.2597 15.072 10.0763 14.9883 9.86703C14.9692 9.89853 14.9553 9.93491 14.931 9.96153C14.5878 10.3489 14.2428 10.7352 13.8975 11.1225C13.7906 11.2403 13.6717 11.2917 13.5877 11.2452C13.4643 11.1754 13.4688 11.052 13.4891 10.9369C13.5802 10.434 13.6747 9.93228 13.7685 9.42941C13.8371 9.06453 13.9057 8.70153 13.9762 8.32128C13.9406 8.33478 13.9166 8.34153 13.8952 8.35203C13.701 8.45253 13.509 8.55491 13.3143 8.65316C13.0758 8.77278 12.9558 8.73341 12.8313 8.50278C12.5677 8.01416 12.3063 7.52478 12.0435 7.03578C12.03 7.01178 12.021 6.98778 12.0003 6.95703L11.9572 7.03578C11.6951 7.52478 11.4333 8.01416 11.1701 8.50278C11.0452 8.73341 10.9248 8.77316 10.6863 8.65316C10.4917 8.55491 10.2997 8.45253 10.1055 8.35203C10.0841 8.34153 10.0601 8.33478 10.0245 8.32128C10.095 8.70153 10.1636 9.06453 10.2322 9.42941C10.326 9.93078 10.4208 10.4325 10.5112 10.9369C10.5322 11.0524 10.5363 11.1758 10.413 11.2452C10.3286 11.2917 10.2101 11.2403 10.1036 11.1225C9.75784 10.7352 9.41284 10.3489 9.06972 9.96153C9.04534 9.93491 9.03109 9.89853 9.01234 9.86703C8.92872 10.0767 8.87734 10.2597 8.82522 10.4427C8.76972 10.6362 8.67934 10.6909 8.48434 10.65C8.18472 10.5867 7.88584 10.5218 7.58584 10.458C7.43734 10.4258 7.28884 10.3973 7.12984 10.3654C7.14447 10.422 7.15384 10.4622 7.16509 10.5004C7.29372 10.9733 7.42459 11.4454 7.55172 11.9187C7.60272 12.1084 7.57384 12.1628 7.40247 12.2404C7.24384 12.3124 7.08559 12.3885 6.91797 12.4669C6.94797 12.4939 6.96484 12.51 6.98359 12.5254C7.38259 12.8502 7.78159 13.1738 8.18134 13.4985C8.56797 13.8128 8.95309 14.1267 9.34009 14.4398C9.47547 14.5489 9.52009 14.6817 9.46422 14.8474C9.43272 14.9449 9.40459 15.0424 9.37534 15.1403C9.34009 15.2554 9.30559 15.3713 9.26659 15.5029C9.65022 15.4485 10.0125 15.3979 10.3773 15.3473C10.8052 15.2884 11.2327 15.228 11.6617 15.174C11.8087 15.1549 11.9178 15.267 11.9118 15.4129C11.8796 16.1865 11.805 17.0599 11.7997 17.7927H12.201C12.1957 17.0599 12.1215 16.1869 12.0892 15.4129C12.0825 15.267 12.192 15.1549 12.339 15.174C12.768 15.228 13.1955 15.2884 13.6233 15.3473C13.9882 15.3979 14.3505 15.4489 14.7341 15.5029C14.6951 15.3713 14.6606 15.2554 14.6253 15.1403C14.5961 15.042 14.568 14.9449 14.5365 14.8474C14.4806 14.6817 14.5252 14.5489 14.6606 14.4398C15.048 14.1267 15.4327 13.8128 15.8193 13.4985C16.2191 13.1742 16.6181 12.8502 17.0171 12.5254C17.0358 12.51 17.0527 12.4939 17.0827 12.4669C16.9147 12.3882 16.7572 12.3124 16.5982 12.2404Z" fill="#EC1C24"/>
</svg>
