<svg width="30" height="30" viewBox="0 0 30 30" fill="none" xmlns="http://www.w3.org/2000/svg">
<circle cx="15" cy="15" r="15" transform="matrix(-1 0 0 1 30 0)" fill="#FFF5DE"/>
<path d="M8.78906 22.0312C10.4167 22.0312 12.0247 21.6763 13.6133 20.9664C15.2018 20.2565 16.6471 19.2508 17.9492 17.9492C19.2513 16.6471 20.257 15.2018 20.9664 13.6133C21.6758 12.0247 22.0307 10.4167 22.0312 8.78906C22.0312 8.55469 21.9531 8.35937 21.7969 8.20312C21.6406 8.04687 21.4453 7.96875 21.2109 7.96875H18.0469C17.8646 7.96875 17.7018 8.03073 17.5586 8.15469C17.4154 8.27865 17.3307 8.425 17.3047 8.59375L16.7969 11.3281C16.7708 11.5365 16.7773 11.7122 16.8164 11.8555C16.8555 11.9987 16.9271 12.1224 17.0313 12.2266L18.9258 14.1406C18.6654 14.6224 18.3563 15.0878 17.9984 15.5367C17.6406 15.9857 17.2466 16.4188 16.8164 16.8359C16.4128 17.2396 15.9896 17.6141 15.5469 17.9594C15.1042 18.3047 14.6354 18.6203 14.1406 18.9062L12.3047 17.0703C12.1875 16.9531 12.0344 16.8651 11.8453 16.8063C11.6562 16.7474 11.4708 16.7312 11.2891 16.7578L8.59375 17.3047C8.41146 17.3568 8.26172 17.4513 8.14453 17.5883C8.02734 17.7253 7.96875 17.8781 7.96875 18.0469V21.2109C7.96875 21.4453 8.04687 21.6406 8.20312 21.7969C8.35937 21.9531 8.55469 22.0312 8.78906 22.0312Z" fill="#F4B82E"/>
</svg>
