<svg width="78" height="78" viewBox="0 0 78 78" fill="none" xmlns="http://www.w3.org/2000/svg">
<g filter="url(#filter0_d_219_26598)">
<circle cx="39" cy="39" r="30" fill="#F4B421"/>
<circle cx="39" cy="39" r="29.5" stroke="white"/>
</g>
<path d="M46.5 40.2461H40.25V46.4961C40.25 46.8276 40.1183 47.1456 39.8839 47.38C39.6495 47.6144 39.3315 47.7461 39 47.7461C38.6685 47.7461 38.3505 47.6144 38.1161 47.38C37.8817 47.1456 37.75 46.8276 37.75 46.4961V40.2461H31.5C31.1685 40.2461 30.8505 40.1144 30.6161 39.88C30.3817 39.6456 30.25 39.3276 30.25 38.9961C30.25 38.6646 30.3817 38.3466 30.6161 38.1122C30.8505 37.8778 31.1685 37.7461 31.5 37.7461H37.75V31.4961C37.75 31.1646 37.8817 30.8466 38.1161 30.6122C38.3505 30.3778 38.6685 30.2461 39 30.2461C39.3315 30.2461 39.6495 30.3778 39.8839 30.6122C40.1183 30.8466 40.25 31.1646 40.25 31.4961V37.7461H46.5C46.8315 37.7461 47.1495 37.8778 47.3839 38.1122C47.6183 38.3466 47.75 38.6646 47.75 38.9961C47.75 39.3276 47.6183 39.6456 47.3839 39.88C47.1495 40.1144 46.8315 40.2461 46.5 40.2461Z" fill="white"/>
<defs>
<filter id="filter0_d_219_26598" x="0" y="0" width="78" height="78" filterUnits="userSpaceOnUse" color-interpolation-filters="sRGB">
<feFlood flood-opacity="0" result="BackgroundImageFix"/>
<feColorMatrix in="SourceAlpha" type="matrix" values="0 0 0 0 0 0 0 0 0 0 0 0 0 0 0 0 0 0 127 0" result="hardAlpha"/>
<feMorphology radius="1" operator="dilate" in="SourceAlpha" result="effect1_dropShadow_219_26598"/>
<feOffset/>
<feGaussianBlur stdDeviation="4"/>
<feComposite in2="hardAlpha" operator="out"/>
<feColorMatrix type="matrix" values="0 0 0 0 0 0 0 0 0 0 0 0 0 0 0 0 0 0 0.25 0"/>
<feBlend mode="normal" in2="BackgroundImageFix" result="effect1_dropShadow_219_26598"/>
<feBlend mode="normal" in="SourceGraphic" in2="effect1_dropShadow_219_26598" result="shape"/>
</filter>
</defs>
</svg>
