<svg width="16" height="16" viewBox="0 0 16 16" fill="none" xmlns="http://www.w3.org/2000/svg">
<path fill-rule="evenodd" clip-rule="evenodd" d="M8.70855 10.5175C8.52105 10.6917 8.26689 10.7895 8.00189 10.7895C7.73689 10.7895 7.48272 10.6917 7.29522 10.5175L3.52322 7.00986C3.33571 6.83535 3.23041 6.5987 3.23047 6.35197C3.23053 6.10523 3.33596 5.86863 3.52355 5.6942C3.71115 5.51978 3.96555 5.42182 4.23079 5.42188C4.49603 5.42193 4.75038 5.52 4.93789 5.69451L8.00189 8.54474L11.0659 5.69451C11.2544 5.52498 11.507 5.4311 11.7692 5.43311C12.0314 5.43511 12.2822 5.53283 12.4677 5.70522C12.6532 5.87762 12.7585 6.11089 12.7609 6.35479C12.7633 6.59869 12.6626 6.83372 12.4806 7.00924L8.70922 10.5181L8.70855 10.5175Z" fill="white"/>
</svg>
