<svg width="391" height="62" viewBox="0 0 391 62" fill="none" xmlns="http://www.w3.org/2000/svg">
<rect x="0.5" y="0.5" width="390" height="61" rx="12.5" fill="white" stroke="#EFEFEF"/>
<g clip-path="url(#clip0_219_25596)">
<path fill-rule="evenodd" clip-rule="evenodd" d="M364.959 30.2934C365.133 30.4809 365.231 30.7351 365.231 31.0001C365.231 31.2651 365.133 31.5192 364.959 31.7067L361.451 35.4787C361.277 35.6662 361.04 35.7715 360.793 35.7715C360.547 35.7714 360.31 35.666 360.136 35.4784C359.961 35.2908 359.863 35.0364 359.863 34.7712C359.863 34.5059 359.961 34.2516 360.136 34.0641L362.986 31.0001L360.136 27.9361C359.966 27.7475 359.873 27.495 359.875 27.2328C359.877 26.9706 359.974 26.7197 360.147 26.5342C360.319 26.3487 360.552 26.2435 360.796 26.2411C361.04 26.2387 361.275 26.3393 361.451 26.5214L364.959 30.2927L364.959 30.2934Z" fill="#F4B421"/>
</g>
<defs>
<clipPath id="clip0_219_25596">
<rect width="16" height="14.8837" fill="white" transform="translate(355 39) rotate(-90)"/>
</clipPath>
</defs>
</svg>
