<svg width="30" height="30" viewBox="0 0 30 30" fill="none" xmlns="http://www.w3.org/2000/svg">
<circle cx="15" cy="15" r="15" transform="matrix(-1 0 0 1 30 0)" fill="#FFF5DE"/>
<path d="M15 6.79688C16.7088 6.79889 18.347 7.4786 19.5553 8.68689C20.7636 9.89518 21.4433 11.5334 21.4453 13.2422C21.4474 14.6386 20.9912 15.9971 20.1469 17.1094C20.1469 17.1094 19.9711 17.3408 19.9424 17.3742L15 23.2031L10.0553 17.3713C10.0295 17.3402 9.85312 17.1094 9.85312 17.1094L9.85253 17.1076C9.0086 15.9959 8.55268 14.638 8.55468 13.2422C8.55669 11.5334 9.2364 9.89518 10.4447 8.68689C11.653 7.4786 13.2912 6.79889 15 6.79688ZM15 15.5859C15.4635 15.5859 15.9167 15.4485 16.3021 15.1909C16.6875 14.9334 16.9879 14.5674 17.1653 14.1391C17.3427 13.7108 17.3891 13.2396 17.2987 12.7849C17.2083 12.3303 16.9851 11.9127 16.6573 11.5849C16.3295 11.2571 15.9119 11.0339 15.4572 10.9435C15.0026 10.853 14.5313 10.8995 14.1031 11.0768C13.6748 11.2542 13.3088 11.5546 13.0512 11.9401C12.7937 12.3255 12.6562 12.7786 12.6562 13.2422C12.657 13.8636 12.9042 14.4592 13.3436 14.8986C13.7829 15.338 14.3786 15.5852 15 15.5859Z" fill="#F4B82E"/>
</svg>
