<svg width="78" height="78" viewBox="0 0 78 78" fill="none" xmlns="http://www.w3.org/2000/svg">
<g filter="url(#filter0_d_219_26387)">
<circle cx="39" cy="39" r="30" fill="#F4B421"/>
<circle cx="39" cy="39" r="29.5" stroke="white"/>
</g>
<path d="M29.1562 50.25C28.286 50.25 27.4514 49.9043 26.8361 49.2889C26.2207 48.6736 25.875 47.839 25.875 46.9688V42.2812C25.875 41.9083 26.0232 41.5506 26.2869 41.2869C26.5506 41.0232 26.9083 40.875 27.2812 40.875C27.6542 40.875 28.0119 41.0232 28.2756 41.2869C28.5393 41.5506 28.6875 41.9083 28.6875 42.2812V46.9688C28.6875 47.2275 28.8975 47.4375 29.1562 47.4375H48.8438C48.9681 47.4375 49.0873 47.3881 49.1752 47.3002C49.2631 47.2123 49.3125 47.0931 49.3125 46.9688V42.2812C49.3125 41.9083 49.4607 41.5506 49.7244 41.2869C49.9881 41.0232 50.3458 40.875 50.7188 40.875C51.0917 40.875 51.4494 41.0232 51.7131 41.2869C51.9768 41.5506 52.125 41.9083 52.125 42.2812V46.9688C52.125 47.839 51.7793 48.6736 51.1639 49.2889C50.5486 49.9043 49.714 50.25 48.8438 50.25H29.1562Z" fill="white"/>
<path d="M46.0866 32.8495C46.2171 32.98 46.3206 33.135 46.3913 33.3055C46.4619 33.476 46.4983 33.6587 46.4983 33.8433C46.4983 34.0278 46.4619 34.2106 46.3913 34.3811C46.3206 34.5516 46.2171 34.7065 46.0866 34.837C45.9561 34.9675 45.8012 35.0711 45.6307 35.1417C45.4602 35.2123 45.2774 35.2487 45.0929 35.2487C44.9083 35.2487 44.7256 35.2123 44.5551 35.1417C44.3846 35.0711 44.2296 34.9675 44.0991 34.837L40.4054 31.1452V41.812C40.4054 42.185 40.2572 42.5427 39.9935 42.8064C39.7298 43.0701 39.3721 43.2183 38.9991 43.2183C38.6262 43.2183 38.2685 43.0701 38.0048 42.8064C37.741 42.5427 37.5929 42.185 37.5929 41.812V31.1452L33.8991 34.837C33.7686 34.9675 33.6137 35.0711 33.4432 35.1417C33.2727 35.2123 33.0899 35.2487 32.9054 35.2487C32.7208 35.2487 32.5381 35.2123 32.3676 35.1417C32.1971 35.0711 32.0421 34.9675 31.9116 34.837C31.7811 34.7065 31.6776 34.5516 31.607 34.3811C31.5364 34.2106 31.5 34.0278 31.5 33.8433C31.5 33.6587 31.5364 33.476 31.607 33.3055C31.6776 33.135 31.7811 32.98 31.9116 32.8495L38.0054 26.7558C38.1358 26.6252 38.2907 26.5215 38.4612 26.4508C38.6317 26.3801 38.8145 26.3438 38.9991 26.3438C39.1837 26.3438 39.3665 26.3801 39.537 26.4508C39.7075 26.5215 39.8624 26.6252 39.9929 26.7558L46.0866 32.8495Z" fill="white"/>
<defs>
<filter id="filter0_d_219_26387" x="0" y="0" width="78" height="78" filterUnits="userSpaceOnUse" color-interpolation-filters="sRGB">
<feFlood flood-opacity="0" result="BackgroundImageFix"/>
<feColorMatrix in="SourceAlpha" type="matrix" values="0 0 0 0 0 0 0 0 0 0 0 0 0 0 0 0 0 0 127 0" result="hardAlpha"/>
<feMorphology radius="1" operator="dilate" in="SourceAlpha" result="effect1_dropShadow_219_26387"/>
<feOffset/>
<feGaussianBlur stdDeviation="4"/>
<feComposite in2="hardAlpha" operator="out"/>
<feColorMatrix type="matrix" values="0 0 0 0 0 0 0 0 0 0 0 0 0 0 0 0 0 0 0.25 0"/>
<feBlend mode="normal" in2="BackgroundImageFix" result="effect1_dropShadow_219_26387"/>
<feBlend mode="normal" in="SourceGraphic" in2="effect1_dropShadow_219_26387" result="shape"/>
</filter>
</defs>
</svg>
