<svg width="20" height="20" viewBox="0 0 20 20" fill="none" xmlns="http://www.w3.org/2000/svg">
<path d="M10.0013 18.3346C14.6038 18.3346 18.3346 14.6038 18.3346 10.0013C18.3346 5.3988 14.6038 1.66797 10.0013 1.66797C5.3988 1.66797 1.66797 5.3988 1.66797 10.0013C1.66797 14.6038 5.3988 18.3346 10.0013 18.3346Z" stroke="#F4B421" stroke-width="1.33333"/>
<path d="M2.5 12.9141C3.59667 13.3536 4.38625 13.3536 4.86833 12.9141C5.59167 12.2541 4.9675 10.2524 5.98083 9.70031C6.99333 9.14823 8.53708 11.5953 9.97958 10.7903C11.4221 9.9849 9.84375 7.8374 10.8446 6.96698C11.8458 6.09615 13.1475 7.07823 13.375 5.6224C13.6025 4.16698 12.3133 4.79823 12.0658 3.4224C11.9013 2.50573 11.9013 2.02365 12.0658 1.97656M12.0917 18.0657C11.3113 17.2666 11.03 16.5241 11.2488 15.8374C11.5767 14.8074 12.1179 14.8682 12.3538 14.2316C12.5896 13.5949 11.9233 12.6878 13.4017 11.9128C14.3875 11.3961 15.7429 11.9945 17.4679 13.7091" stroke="#F4B421" stroke-width="1.33333" stroke-linecap="round"/>
</svg>
