<svg width="20" height="20" viewBox="0 0 20 20" fill="none" xmlns="http://www.w3.org/2000/svg">
<path d="M10.0013 18.3327C14.6038 18.3327 18.3346 14.6018 18.3346 9.99935C18.3346 5.39685 14.6038 1.66602 10.0013 1.66602C5.3988 1.66602 1.66797 5.39685 1.66797 9.99935C1.66797 14.6018 5.3988 18.3327 10.0013 18.3327Z" stroke="#9F9F9F" stroke-width="1.33333"/>
<path d="M2.5 12.9102C3.59667 13.3497 4.38625 13.3497 4.86833 12.9102C5.59167 12.2502 4.9675 10.2485 5.98083 9.69641C6.99333 9.14432 8.53708 11.5914 9.97958 10.7864C11.4221 9.98099 9.84375 7.83349 10.8446 6.96307C11.8458 6.09224 13.1475 7.07432 13.375 5.61849C13.6025 4.16307 12.3133 4.79432 12.0658 3.41849C11.9013 2.50182 11.9013 2.01974 12.0658 1.97266M12.0917 18.0618C11.3113 17.2627 11.03 16.5202 11.2488 15.8335C11.5767 14.8035 12.1179 14.8643 12.3538 14.2277C12.5896 13.591 11.9233 12.6839 13.4017 11.9089C14.3875 11.3922 15.7429 11.9906 17.4679 13.7052" stroke="#9F9F9F" stroke-width="1.33333" stroke-linecap="round"/>
</svg>
