<svg width="16" height="15" viewBox="0 0 16 15" fill="none" xmlns="http://www.w3.org/2000/svg">
<path d="M14 13.0465L11.1047 10.3532M11.1047 10.3532C11.5999 9.89247 11.9928 9.34553 12.2608 8.74359C12.5288 8.14165 12.6668 7.4965 12.6668 6.84496C12.6668 6.19342 12.5289 5.54827 12.2608 4.94633C11.9928 4.34439 11.5999 3.79745 11.1047 3.33674C10.6094 2.87604 10.0215 2.51059 9.37436 2.26125C8.72728 2.01192 8.03373 1.88359 7.33333 1.88359C6.63293 1.88359 5.93939 2.01192 5.2923 2.26125C4.64522 2.51059 4.05726 2.87604 3.562 3.33674C2.56178 4.26718 1.99986 5.52912 1.99986 6.84496C1.99986 8.1608 2.56178 9.42274 3.562 10.3532C4.56222 11.2836 5.91881 11.8063 7.33333 11.8063C8.74786 11.8063 10.1044 11.2836 11.1047 10.3532Z" stroke="black" stroke-width="1.33333" stroke-linecap="round" stroke-linejoin="round"/>
</svg>
