<svg width="26" height="26" viewBox="0 0 26 26" fill="none" xmlns="http://www.w3.org/2000/svg">
<path d="M19.8257 6.18656C19.7255 6.08614 19.6065 6.00646 19.4754 5.9521C19.3444 5.89773 19.2039 5.86975 19.062 5.86975C18.9201 5.86975 18.7796 5.89773 18.6486 5.9521C18.5175 6.00646 18.3985 6.08614 18.2982 6.18656L13.0007 11.4732L7.70323 6.17573C7.60293 6.07543 7.48386 5.99587 7.35282 5.94159C7.22177 5.88731 7.08132 5.85938 6.93948 5.85938C6.79764 5.85937 6.65719 5.88731 6.52614 5.94159C6.3951 5.99587 6.27603 6.07543 6.17573 6.17573C6.07543 6.27603 5.99587 6.3951 5.94159 6.52614C5.88731 6.65719 5.85937 6.79764 5.85938 6.93948C5.85938 7.08132 5.88731 7.22177 5.94159 7.35282C5.99587 7.48386 6.07543 7.60293 6.17573 7.70323L11.4732 13.0007L6.17573 18.2982C6.07543 18.3985 5.99587 18.5176 5.94159 18.6486C5.88731 18.7797 5.85938 18.9201 5.85938 19.062C5.85937 19.2038 5.88731 19.3443 5.94159 19.4753C5.99587 19.6064 6.07543 19.7254 6.17573 19.8257C6.27603 19.926 6.3951 20.0056 6.52614 20.0599C6.65719 20.1142 6.79764 20.1421 6.93948 20.1421C7.08132 20.1421 7.22177 20.1142 7.35282 20.0599C7.48386 20.0056 7.60293 19.926 7.70323 19.8257L13.0007 14.5282L18.2982 19.8257C18.3985 19.926 18.5176 20.0056 18.6486 20.0599C18.7797 20.1142 18.9201 20.1421 19.062 20.1421C19.2038 20.1421 19.3443 20.1142 19.4753 20.0599C19.6064 20.0056 19.7254 19.926 19.8257 19.8257C19.926 19.7254 20.0056 19.6064 20.0599 19.4753C20.1142 19.3443 20.1421 19.2038 20.1421 19.062C20.1421 18.9201 20.1142 18.7797 20.0599 18.6486C20.0056 18.5176 19.926 18.3985 19.8257 18.2982L14.5282 13.0007L19.8257 7.70323C20.2374 7.29156 20.2374 6.59823 19.8257 6.18656Z" fill="#807B7B"/>
</svg>
