<svg width="20" height="20" viewBox="0 0 20 20" fill="none" xmlns="http://www.w3.org/2000/svg">
<path d="M8.33464 10.832C8.04297 11.3237 7.8013 11.8654 7.65964 12.4404C5.41797 12.632 3.2513 13.682 3.2513 14.1654V15.082H7.66797C7.80964 15.6487 8.04297 16.182 8.33464 16.6654H1.66797V14.1654C1.66797 11.9487 6.10964 10.832 8.33464 10.832ZM8.33464 3.33203C9.21869 3.33203 10.0665 3.68322 10.6917 4.30834C11.3168 4.93346 11.668 5.78131 11.668 6.66536C11.668 7.4237 11.4096 8.1237 10.9846 8.69036C10.268 8.95703 9.6263 9.38203 9.09297 9.91536L8.33464 9.9987C7.45058 9.9987 6.60273 9.64751 5.97761 9.02239C5.35249 8.39727 5.0013 7.54942 5.0013 6.66536C5.0013 5.78131 5.35249 4.93346 5.97761 4.30834C6.60273 3.68322 7.45058 3.33203 8.33464 3.33203ZM8.33464 4.91536C7.87051 4.91536 7.42539 5.09974 7.0972 5.42793C6.76901 5.75612 6.58464 6.20124 6.58464 6.66536C6.58464 7.12949 6.76901 7.57461 7.0972 7.9028C7.42539 8.23099 7.87051 8.41536 8.33464 8.41536C8.79876 8.41536 9.24388 8.23099 9.57207 7.9028C9.90026 7.57461 10.0846 7.12949 10.0846 6.66536C10.0846 6.20124 9.90026 5.75612 9.57207 5.42793C9.24388 5.09974 8.79876 4.91536 8.33464 4.91536ZM12.918 9.9987C15.0013 9.9987 16.668 11.6654 16.668 13.7487C16.668 14.482 16.4596 15.1737 16.093 15.7487L18.6596 18.332L17.5013 19.4904L14.9013 16.932C14.3263 17.2904 13.643 17.4987 12.918 17.4987C10.8346 17.4987 9.16797 15.832 9.16797 13.7487C9.16797 11.6654 10.8346 9.9987 12.918 9.9987ZM12.918 11.6654C12.3654 11.6654 11.8355 11.8849 11.4448 12.2756C11.0541 12.6663 10.8346 13.1962 10.8346 13.7487C10.8346 14.3012 11.0541 14.8311 11.4448 15.2218C11.8355 15.6125 12.3654 15.832 12.918 15.832C13.4705 15.832 14.0004 15.6125 14.3911 15.2218C14.7818 14.8311 15.0013 14.3012 15.0013 13.7487C15.0013 13.1962 14.7818 12.6663 14.3911 12.2756C14.0004 11.8849 13.4705 11.6654 12.918 11.6654Z" fill="#F4B421"/>
</svg>
