<svg width="16" height="16" viewBox="0 0 16 16" fill="none" xmlns="http://www.w3.org/2000/svg">
<path d="M6.66536 8.66602C6.43203 9.05935 6.2387 9.49268 6.12536 9.95268C4.33203 10.106 2.5987 10.946 2.5987 11.3327V12.066H6.13203C6.24536 12.5193 6.43203 12.946 6.66536 13.3327H1.33203V11.3327C1.33203 9.55935 4.88536 8.66602 6.66536 8.66602ZM6.66536 2.66602C7.37261 2.66602 8.05089 2.94697 8.55098 3.44706C9.05108 3.94716 9.33203 4.62544 9.33203 5.33268C9.33203 5.93935 9.12536 6.49935 8.78537 6.95268C8.21203 7.16602 7.6987 7.50602 7.27203 7.93268L6.66536 7.99935C5.95812 7.99935 5.27984 7.7184 4.77975 7.2183C4.27965 6.7182 3.9987 6.03993 3.9987 5.33268C3.9987 4.62544 4.27965 3.94716 4.77975 3.44706C5.27984 2.94697 5.95812 2.66602 6.66536 2.66602ZM6.66536 3.93268C6.29406 3.93268 5.93797 4.08018 5.67542 4.34273C5.41286 4.60528 5.26536 4.96138 5.26536 5.33268C5.26536 5.70399 5.41286 6.06008 5.67542 6.32263C5.93797 6.58518 6.29406 6.73268 6.66536 6.73268C7.03667 6.73268 7.39276 6.58518 7.65531 6.32263C7.91787 6.06008 8.06536 5.70399 8.06536 5.33268C8.06536 4.96138 7.91787 4.60528 7.65531 4.34273C7.39276 4.08018 7.03667 3.93268 6.66536 3.93268ZM10.332 7.99935C11.9987 7.99935 13.332 9.33268 13.332 10.9993C13.332 11.586 13.1654 12.1393 12.872 12.5993L14.9254 14.666L13.9987 15.5927L11.9187 13.546C11.4587 13.8327 10.912 13.9993 10.332 13.9993C8.66536 13.9993 7.33203 12.666 7.33203 10.9993C7.33203 9.33268 8.66536 7.99935 10.332 7.99935ZM10.332 9.33268C9.89 9.33268 9.46608 9.50828 9.15352 9.82084C8.84096 10.1334 8.66536 10.5573 8.66536 10.9993C8.66536 11.4414 8.84096 11.8653 9.15352 12.1779C9.46608 12.4904 9.89 12.666 10.332 12.666C10.7741 12.666 11.198 12.4904 11.5105 12.1779C11.8231 11.8653 11.9987 11.4414 11.9987 10.9993C11.9987 10.5573 11.8231 10.1334 11.5105 9.82084C11.198 9.50828 10.7741 9.33268 10.332 9.33268Z" fill="#FF9C06"/>
</svg>
