<svg width="20" height="20" viewBox="0 0 20 20" fill="none" xmlns="http://www.w3.org/2000/svg">
<path d="M8.33464 10.834C8.04297 11.3257 7.8013 11.8673 7.65964 12.4423C5.41797 12.634 3.2513 13.684 3.2513 14.1673V15.084H7.66797C7.80964 15.6507 8.04297 16.184 8.33464 16.6673H1.66797V14.1673C1.66797 11.9507 6.10964 10.834 8.33464 10.834ZM8.33464 3.33398C9.21869 3.33398 10.0665 3.68517 10.6917 4.31029C11.3168 4.93542 11.668 5.78326 11.668 6.66732C11.668 7.42565 11.4096 8.12565 10.9846 8.69232C10.268 8.95898 9.6263 9.38398 9.09297 9.91732L8.33464 10.0007C7.45058 10.0007 6.60273 9.64946 5.97761 9.02434C5.35249 8.39922 5.0013 7.55137 5.0013 6.66732C5.0013 5.78326 5.35249 4.93542 5.97761 4.31029C6.60273 3.68517 7.45058 3.33398 8.33464 3.33398ZM8.33464 4.91732C7.87051 4.91732 7.42539 5.10169 7.0972 5.42988C6.76901 5.75807 6.58464 6.20319 6.58464 6.66732C6.58464 7.13145 6.76901 7.57657 7.0972 7.90475C7.42539 8.23294 7.87051 8.41732 8.33464 8.41732C8.79876 8.41732 9.24388 8.23294 9.57207 7.90475C9.90026 7.57657 10.0846 7.13145 10.0846 6.66732C10.0846 6.20319 9.90026 5.75807 9.57207 5.42988C9.24388 5.10169 8.79876 4.91732 8.33464 4.91732ZM12.918 10.0007C15.0013 10.0007 16.668 11.6673 16.668 13.7507C16.668 14.484 16.4596 15.1757 16.093 15.7507L18.6596 18.334L17.5013 19.4923L14.9013 16.934C14.3263 17.2923 13.643 17.5007 12.918 17.5007C10.8346 17.5007 9.16797 15.834 9.16797 13.7507C9.16797 11.6673 10.8346 10.0007 12.918 10.0007ZM12.918 11.6673C12.3654 11.6673 11.8355 11.8868 11.4448 12.2775C11.0541 12.6682 10.8346 13.1981 10.8346 13.7507C10.8346 14.3032 11.0541 14.8331 11.4448 15.2238C11.8355 15.6145 12.3654 15.834 12.918 15.834C13.4705 15.834 14.0004 15.6145 14.3911 15.2238C14.7818 14.8331 15.0013 14.3032 15.0013 13.7507C15.0013 13.1981 14.7818 12.6682 14.3911 12.2775C14.0004 11.8868 13.4705 11.6673 12.918 11.6673Z" fill="#9F9F9F"/>
</svg>
