<svg width="16" height="16" viewBox="0 0 16 16" fill="none" xmlns="http://www.w3.org/2000/svg">
<g clip-path="url(#clip0_219_25322)">
<path fill-rule="evenodd" clip-rule="evenodd" d="M10.5175 7.2934C10.6917 7.4809 10.7895 7.73507 10.7895 8.00007C10.7895 8.26507 10.6917 8.51923 10.5175 8.70673L7.00986 12.4787C6.83535 12.6662 6.5987 12.7715 6.35197 12.7715C6.10523 12.7714 5.86863 12.666 5.6942 12.4784C5.51978 12.2908 5.42182 12.0364 5.42187 11.7712C5.42193 11.5059 5.52 11.2516 5.69451 11.0641L8.54474 8.00007L5.69451 4.93607C5.52498 4.74755 5.4311 4.49499 5.43311 4.2328C5.43511 3.9706 5.53283 3.71973 5.70522 3.53424C5.87762 3.34874 6.11088 3.24345 6.35479 3.24105C6.59869 3.23865 6.83372 3.33933 7.00924 3.5214L10.5181 7.29273L10.5175 7.2934Z" fill="#C4C4C4"/>
</g>
<defs>
<clipPath id="clip0_219_25322">
<rect width="16" height="14.8837" fill="white" transform="translate(0.558594 16) rotate(-90)"/>
</clipPath>
</defs>
</svg>
