<svg width="16" height="17" viewBox="0 0 16 17" fill="none" xmlns="http://www.w3.org/2000/svg">
<g clip-path="url(#clip0_219_25291)">
<path fill-rule="evenodd" clip-rule="evenodd" d="M10.5175 7.7348C10.6917 7.92231 10.7895 8.17647 10.7895 8.44147C10.7895 8.70647 10.6917 8.96064 10.5175 9.14814L7.00986 12.9201C6.83535 13.1076 6.5987 13.213 6.35197 13.2129C6.10523 13.2128 5.86863 13.1074 5.6942 12.9198C5.51978 12.7322 5.42182 12.4778 5.42187 12.2126C5.42193 11.9473 5.52 11.693 5.69451 11.5055L8.54474 8.44147L5.69451 5.37747C5.52498 5.18896 5.4311 4.9364 5.43311 4.6742C5.43511 4.412 5.53283 4.16114 5.70522 3.97564C5.87762 3.79015 6.11088 3.68486 6.35479 3.68246C6.59869 3.68006 6.83372 3.78073 7.00924 3.9628L10.5181 7.73414L10.5175 7.7348Z" fill="#C4C4C4"/>
</g>
<defs>
<clipPath id="clip0_219_25291">
<rect width="16" height="14.8837" fill="white" transform="translate(0.558594 16.4414) rotate(-90)"/>
</clipPath>
</defs>
</svg>
