<svg width="16" height="15" viewBox="0 0 16 15" fill="none" xmlns="http://www.w3.org/2000/svg">
<g clip-path="url(#clip0_219_25334)">
<path fill-rule="evenodd" clip-rule="evenodd" d="M7.29145 4.94739C7.47895 4.77318 7.73311 4.67534 7.99811 4.67534C8.26311 4.67534 8.51728 4.77318 8.70478 4.94739L12.4768 8.45498C12.6643 8.62949 12.7696 8.86614 12.7695 9.11288C12.7695 9.35961 12.664 9.59622 12.4764 9.77064C12.2889 9.94507 12.0344 10.043 11.7692 10.043C11.504 10.0429 11.2496 9.94484 11.0621 9.77033L7.99811 6.9201L4.93411 9.77033C4.7456 9.93986 4.49304 10.0337 4.23084 10.0317C3.96864 10.0297 3.71778 9.93201 3.53228 9.75962C3.34679 9.58723 3.2415 9.35396 3.2391 9.11005C3.2367 8.86615 3.33737 8.63113 3.51945 8.4556L7.29078 4.94676L7.29145 4.94739Z" fill="#C4C4C4"/>
</g>
<defs>
<clipPath id="clip0_219_25334">
<rect width="16" height="14.8837" fill="white" transform="translate(16 14.9062) rotate(-180)"/>
</clipPath>
</defs>
</svg>
