<svg width="16" height="15" viewBox="0 0 16 15" fill="none" xmlns="http://www.w3.org/2000/svg">
<g clip-path="url(#clip0_207_8491)">
<path fill-rule="evenodd" clip-rule="evenodd" d="M8.7066 9.98257C8.5191 10.1568 8.26493 10.2546 7.99993 10.2546C7.73493 10.2546 7.48077 10.1568 7.29327 9.98257L3.52127 6.47498C3.33376 6.30047 3.22845 6.06382 3.22852 5.81708C3.22858 5.57035 3.334 5.33374 3.5216 5.15932C3.7092 4.98489 3.9636 4.88693 4.22884 4.88699C4.49408 4.88705 4.74843 4.98512 4.93593 5.15963L7.99993 8.00986L11.0639 5.15963C11.2525 4.99009 11.505 4.89622 11.7672 4.89822C12.0294 4.90023 12.2803 4.99795 12.4658 5.17034C12.6513 5.34273 12.7565 5.576 12.7589 5.8199C12.7613 6.06381 12.6607 6.29883 12.4786 6.47436L8.70727 9.98319L8.7066 9.98257Z" fill="#C4C4C4"/>
</g>
<defs>
<clipPath id="clip0_207_8491">
<rect width="16" height="14.8837" fill="white" transform="translate(0 0.0232553)"/>
</clipPath>
</defs>
</svg>
