<svg width="20" height="20" viewBox="0 0 20 20" fill="none" xmlns="http://www.w3.org/2000/svg">
<path d="M10.4996 13.3333L7.83297 6.66667H6.1663L4.49963 10.8333V10.835L3.50047 13.3333H5.29547L5.6288 12.5H8.37047L8.7038 13.3333H10.4996ZM6.29463 10.8333L7.00047 9.07083L7.70463 10.8333H6.29463ZM14.168 6.66667H15.8346V13.3333H13.3346C12.6716 13.3333 12.0357 13.0699 11.5669 12.6011C11.098 12.1323 10.8346 11.4964 10.8346 10.8333C10.8346 10.1703 11.098 9.53441 11.5669 9.06557C12.0357 8.59672 12.6716 8.33333 13.3346 8.33333H14.168V6.66667ZM13.3346 10C13.1136 10 12.9017 10.0878 12.7454 10.2441C12.5891 10.4004 12.5013 10.6123 12.5013 10.8333C12.5013 11.0543 12.5891 11.2663 12.7454 11.4226C12.9017 11.5789 13.1136 11.6667 13.3346 11.6667H14.168V10H13.3346ZM17.5013 2.5H2.5013C2.28029 2.5 2.06833 2.5878 1.91205 2.74408C1.75577 2.90036 1.66797 3.11232 1.66797 3.33333V16.6667C1.66797 16.8877 1.75577 17.0996 1.91205 17.2559C2.06833 17.4122 2.28029 17.5 2.5013 17.5H17.5013C17.7223 17.5 17.9343 17.4122 18.0906 17.2559C18.2468 17.0996 18.3346 16.8877 18.3346 16.6667V3.33333C18.3346 3.11232 18.2468 2.90036 18.0906 2.74408C17.9343 2.5878 17.7223 2.5 17.5013 2.5ZM3.33463 15.8333V4.16667H16.668V15.8333H3.33463Z" fill="white"/>
</svg>
