<svg width="20" height="20" viewBox="0 0 20 20" fill="none" xmlns="http://www.w3.org/2000/svg">
<path d="M9.99922 0.671875L19.8617 7.08271L18.3326 8.07688V13.3327H16.6659V9.15938L15.8326 9.70104V14.5827C15.8326 15.8077 14.9876 16.7619 13.9551 17.3644C12.9009 17.9794 11.5009 18.3327 9.99922 18.3327C8.49755 18.3327 7.09672 17.9794 6.04339 17.3644C5.01005 16.7627 4.16589 15.8077 4.16589 14.5827V9.70187L0.136719 7.08271L9.99922 0.671875ZM5.83255 10.7852V14.5827C5.83255 14.9685 6.10755 15.4719 6.88339 15.9244C7.64005 16.366 8.73922 16.666 9.99922 16.666C11.2592 16.666 12.3584 16.366 13.1151 15.9244C13.8917 15.4719 14.1651 14.9685 14.1651 14.5827V10.7852L9.99838 13.4935L5.83255 10.7852ZM16.8034 7.08271L9.99922 2.65938L3.19505 7.08271L9.99922 11.5052L16.8034 7.08271Z" fill="#B0B2B7"/>
</svg>
