<svg width="8" height="8" viewBox="0 0 8 8" fill="none" xmlns="http://www.w3.org/2000/svg">
<path d="M7.21619 5.45545L6.08502 5.32631C5.95202 5.31068 5.8172 5.32541 5.6907 5.36938C5.5642 5.41334 5.44931 5.4854 5.35466 5.58015L4.53523 6.39958C3.27098 5.7566 2.2434 4.72902 1.60042 3.46477L2.4243 2.64089C2.6158 2.44939 2.70932 2.18218 2.67815 1.91052L2.549 0.788258C2.52375 0.571009 2.41949 0.370631 2.25607 0.225276C2.09265 0.0799213 1.88148 -0.000259303 1.66277 6.30021e-07H0.892322C0.389085 6.30021e-07 -0.0295381 0.418623 0.00163596 0.921861C0.237668 4.72509 3.27936 7.76233 7.07814 7.99836C7.58138 8.02954 8 7.61092 8 7.10768V6.33723C8.00445 5.88744 7.66599 5.5089 7.21619 5.45545Z" fill="#8B8B8B"/>
</svg>
