<svg width="10" height="9" viewBox="0 0 10 9" fill="none" xmlns="http://www.w3.org/2000/svg">
<path d="M8.42147 5.56662L7.14545 5.43576C6.99541 5.41993 6.84333 5.43485 6.70064 5.4794C6.55794 5.52395 6.42834 5.59696 6.32157 5.69296L5.39721 6.52322C3.97108 5.87175 2.81191 4.83058 2.0866 3.54962L3.01598 2.71485C3.232 2.52082 3.3375 2.25008 3.30233 1.97483L3.15665 0.837738C3.12816 0.617618 3.01055 0.414592 2.82621 0.267316C2.64186 0.12004 2.40365 0.0387998 2.15693 0.0390631H1.28783C0.720156 0.0390631 0.24793 0.463218 0.283095 0.973107C0.549351 4.8266 3.98053 7.90398 8.26574 8.14313C8.83341 8.17472 9.30564 7.75056 9.30564 7.24067V6.46005C9.31066 6.00431 8.92886 5.62076 8.42147 5.56662Z" fill="#8B8B8B"/>
</svg>
